# xmcd
#
# Track frame offsets:
#	150
#	18425
#	39133
#	57519
#	72110
#	89439
#	112781
#	130593
#	148041
#	168375
#	188296
#	212368
#	229828
#	247840
#	266094
#	282043
#	299150
#
# Disc length: 4299
#
# Revision: 2
# Processed by: cddbd v1.5.1PL0 Copyright (c) Steve Scherf et al.
# Submitted via: audiograbber 1.81.03
# Normalized: r1:DSETVAR1
#
DISCID=e810c911
DTITLE=Various Artist - Country Heat 2003
DYEAR=2003
DGENRE=Country
TTITLE0=Alan Jackson - Drive (For Daddy Gene)
TTITLE1=Martina McBride - Blessed
TTITLE2=Tim McGraw - The Cowboy In Me
TTITLE3=Brad Paisley - I'm Gonna Miss Her
TTITLE4=Brooks and Dunn - The Long Goodbye
TTITLE5=Carolyn Dawn Johnson - You Are
TTITLE6=Kenny Chesney - Young
TTITLE7=Lonestar - With Me
TTITLE8=Diamond Rio - Sweet Summer
TTITLE9=Sara Evans - Saints and Angels
TTITLE10=Paul Brandt - Small Towns and Big Dreams
TTITLE11=Aaron Lines - I Can Read Your Heart
TTITLE12=Jo Dee Mesina (With Tim McGraw) - Bring On The Rain
TTITLE13=Chris Cagle - I Breathe In, I Breathe Out
TTITLE14=Steve Holy - Good Morning Beautiful
TTITLE15=Tracy Byrd - Just Let Me Be In Love
TTITLE16=Montgonery Gentry - Cold One Comin' On
EXTD="Country Heat 2003"
EXTT0=
EXTT1=
EXTT2=
EXTT3=
EXTT4=
EXTT5=
EXTT6=
EXTT7=
EXTT8=
EXTT9=
EXTT10=
EXTT11=
EXTT12=with Tim McGraw
EXTT13=
EXTT14=
EXTT15=
EXTT16=
PLAYORDER=
